<svg width="400" height="217" viewBox="0 0 400 217" fill="none" xmlns="http://www.w3.org/2000/svg">
<path fill-rule="evenodd" clip-rule="evenodd" d="M289 216.6C304.6 216.6 319.1 213.799 332.5 208.199C346.1 202.799 357.9 195.1 367.9 185.1C378.1 175.3 386 163.799 391.6 150.6C397.2 137.6 400 123.5 400 108.3C400 93.0998 397.2 78.8992 391.6 65.6992C386 52.6994 378.1 41.1991 367.9 31.1992C357.9 21.3992 346.1 13.6996 332.5 8.09961C319.1 2.69961 304.6 0 289 0C288.833 9.41242e-09 288.667 0.00231245 288.5 0.00292969C288.333 0.00231238 288.167 0 288 0C272.4 8.80325e-07 257.9 2.69961 244.5 8.09961C231.1 13.6996 219.3 21.3992 209.1 31.1992C198.9 41.1991 191 52.6994 185.4 65.6992C179.8 78.8992 177 93.0998 177 108.3C177 110.119 177.041 111.922 177.121 113.71C176.605 121.435 174.965 128.632 172.2 135.3C169 143.7 164.4 150.899 158.4 156.899C152.4 163.099 145.4 167.9 137.4 171.3C129.4 174.9 120.7 176.699 111.3 176.699C101.7 176.699 92.9002 174.9 84.9004 171.3C76.9004 167.9 69.9004 163.099 63.9004 156.899C57.9004 150.899 53.1998 143.7 49.7998 135.3C46.3998 127.1 44.7002 118.1 44.7002 108.3C44.7002 98.6999 46.3999 89.6997 49.7998 81.2998C53.1998 72.8998 57.9004 65.5994 63.9004 59.3994C69.9003 53.3995 76.9005 48.5999 84.9004 45C92.9003 41.6001 101.6 39.8994 111 39.8994C118.822 39.8994 126.113 41.0284 132.873 43.2858C135.433 44.1407 138.301 43.0555 139.436 40.6066L152.288 12.873C153.491 10.2769 152.277 7.19179 149.574 6.25338C137.565 2.08428 124.707 0 111 0C95.4 8.80325e-07 80.9 2.69961 67.5 8.09961C54.1 13.6996 42.2996 21.3992 32.0996 31.1992C21.8997 41.1991 14.0004 52.6994 8.40039 65.6992C2.80039 78.8992 0 93.0998 0 108.3C2.43605e-05 123.5 2.80041 137.6 8.40039 150.6C14.0004 163.799 21.8997 175.3 32.0996 185.1C42.2996 195.1 54.1001 202.799 67.5 208.199C80.9 213.799 95.4 216.6 111 216.6C126.6 216.6 141.1 213.799 154.5 208.199C168.1 202.799 179.9 195.1 189.9 185.1C191.823 183.253 193.663 181.345 195.421 179.376C197.575 176.965 201.421 176.965 203.576 179.376C205.336 181.344 207.177 183.252 209.1 185.1C219.3 195.1 231.1 202.799 244.5 208.199C257.9 213.799 272.4 216.6 288 216.6C288.167 216.6 288.333 216.598 288.5 216.598C288.667 216.598 288.833 216.6 289 216.6ZM288.794 176.697C279.391 176.635 270.76 174.836 262.9 171.3C254.9 167.9 247.9 163.099 241.9 156.899C235.9 150.899 231.2 143.7 227.8 135.3C224.4 127.1 222.7 118.1 222.7 108.3C222.7 98.6999 224.4 89.6997 227.8 81.2998C231.2 72.8998 235.9 65.5994 241.9 59.3994C247.9 53.3995 254.901 48.5999 262.9 45C270.76 41.6598 279.294 39.9611 288.505 39.9023C297.909 39.961 306.541 41.6597 314.4 45C322.4 48.6 329.401 53.3995 335.4 59.3994C341.4 65.5994 346 72.8998 349.2 81.2998C352.6 89.6997 354.3 98.6999 354.3 108.3C354.3 118.1 352.6 127.1 349.2 135.3C346 143.7 341.4 150.899 335.4 156.899C329.4 163.099 322.4 167.9 314.4 171.3C306.541 174.837 298.005 176.635 288.794 176.697Z" fill="url(#paint0_linear_19_77)"/>
<path d="M331 109.1C331 85.6275 311.972 66.5996 288.5 66.5996C265.028 66.5996 246 85.6275 246 109.1C246 132.572 265.028 151.6 288.5 151.6C311.972 151.6 331 132.572 331 109.1Z" fill="url(#paint1_linear_19_77)"/>
<defs>
<linearGradient id="paint0_linear_19_77" x1="100" y1="231.6" x2="200" y2="6.0716e-06" gradientUnits="userSpaceOnUse">
<stop stop-color="#EA951D"/>
<stop offset="1" stop-color="#714213"/>
</linearGradient>
<linearGradient id="paint1_linear_19_77" x1="100" y1="231.6" x2="200" y2="6.0716e-06" gradientUnits="userSpaceOnUse">
<stop stop-color="#EA951D"/>
<stop offset="1" stop-color="#714213"/>
</linearGradient>
</defs>
</svg>
